<svg width="50" height="46" viewBox="0 0 50 46" fill="none" xmlns="http://www.w3.org/2000/svg">
<path d="M37.1401 23.71C39.4201 22.41 41.6401 21.1 43.9001 19.88C44.4601 19.57 45.1501 19.37 45.7901 19.36C47.6501 19.32 49.1601 20.83 49.2001 22.7C49.2301 24.36 49.2001 26.02 49.2001 27.67C49.2001 32.1 49.2001 36.54 49.2001 40.97C49.2001 43.16 47.4701 44.71 45.3101 44.46C44.8101 44.4 44.3001 44.19 43.8501 43.94C41.8301 42.82 39.8401 41.67 37.8401 40.52C37.6201 40.4 37.4001 40.27 37.1401 40.12C37.0901 40.6 37.0701 41.03 36.9901 41.46C36.5201 43.98 34.4201 45.74 31.8301 45.75C28.2101 45.77 24.5801 45.75 20.9601 45.75C16.0601 45.75 11.1501 45.75 6.2501 45.75C2.9301 45.75 0.730103 43.55 0.730103 40.23C0.730103 34.68 0.730103 29.13 0.730103 23.58C0.730103 20.26 2.9301 18.06 6.2501 18.06C14.6501 18.06 23.0501 18.1 31.4501 18.04C35.0101 18.01 37.2701 20.8001 37.0901 23.5301C37.0901 23.5601 37.1101 23.6 37.1301 23.7L37.1401 23.71ZM18.9001 21.5301C14.6601 21.5301 10.4301 21.5301 6.1901 21.5301C4.8701 21.5301 4.2001 22.2001 4.2001 23.5301C4.2001 29.1201 4.2001 34.71 4.2001 40.29C4.2001 41.61 4.8801 42.29 6.1901 42.29C14.6601 42.29 23.1401 42.29 31.6101 42.29C32.9701 42.29 33.6201 41.63 33.6201 40.26C33.6201 34.69 33.6201 29.12 33.6201 23.55C33.6201 22.19 32.9601 21.52 31.6001 21.52C27.3601 21.52 23.1301 21.52 18.8901 21.52L18.9001 21.5301ZM45.7101 41.0301V22.85C45.6301 22.88 45.5701 22.89 45.5301 22.91C42.8101 24.46 40.0901 26.01 37.3801 27.58C37.2201 27.67 37.1001 27.98 37.1001 28.18C37.0801 30.67 37.1001 33.15 37.0801 35.64C37.0801 36 37.2101 36.18 37.5101 36.35C38.5501 36.92 39.5801 37.52 40.6101 38.11C42.2901 39.07 43.9801 40.0301 45.7201 41.0301H45.7101Z" fill="#00C497"/>
<path d="M18.0401 8.58001C18.0401 12.88 14.5201 16.36 10.2001 16.34C5.96011 16.33 2.46011 12.82 2.46011 8.58001C2.46011 4.26001 5.95011 0.750031 10.2401 0.760031C14.5601 0.770031 18.0401 4.25003 18.0301 8.57003L18.0401 8.58001ZM14.5801 8.56002C14.5801 6.19002 12.6501 4.25003 10.3001 4.23003C7.88011 4.22003 5.93011 6.17001 5.93011 8.58001C5.93011 10.94 7.88011 12.88 10.2401 12.88C12.6401 12.88 14.5801 10.94 14.5801 8.55001V8.56002Z" fill="#00C497"/>
<path d="M35.3501 8.55002C35.3501 12.85 31.8601 16.3401 27.5401 16.3401C23.3001 16.3401 19.7801 12.85 19.7701 8.61002C19.7601 4.29002 23.2401 0.76004 27.5201 0.76004C31.8501 0.76004 35.3401 4.23004 35.3401 8.54004L35.3501 8.55002ZM27.5301 12.88C29.9301 12.88 31.8801 10.96 31.8901 8.57004C31.8901 6.20004 29.9801 4.25004 27.6201 4.23004C25.2001 4.21004 23.2401 6.15004 23.2401 8.57004C23.2401 10.93 25.1801 12.88 27.5401 12.88H27.5301Z" fill="#00C497"/>
<path d="M18.9301 26.73C20.8901 26.73 22.8601 26.73 24.8201 26.73C26.9401 26.73 28.4201 28.21 28.4301 30.33C28.4301 31.43 28.4401 32.53 28.4301 33.63C28.4101 35.59 26.9201 37.1 24.9701 37.11C20.9401 37.13 16.9001 37.13 12.8701 37.11C10.9201 37.11 9.4201 35.59 9.4001 33.64C9.3901 32.52 9.4001 31.41 9.4001 30.29C9.4101 28.21 10.9001 26.74 13.0001 26.73C14.9801 26.73 16.9601 26.73 18.9401 26.73H18.9301ZM24.9401 30.23H12.8901V33.63H24.9401V30.23Z" fill="#00C497"/>
</svg>
