<svg width="103" height="111" viewBox="0 0 103 111" fill="none" xmlns="http://www.w3.org/2000/svg">
<path d="M83.816 6.2478C84.911 5.0899 85.9682 3.89423 87.1135 2.77409C90.8516 -0.875832 96.3894 -0.926175 99.8757 2.63564C103.375 6.21004 103.236 11.6975 99.561 15.4104C98.4661 16.5179 97.3711 17.6003 96.2258 18.7456C98.7052 22.7479 100.53 26.9642 101.361 31.5455C103.74 44.6726 100.643 56.3272 91.4683 66.119C86.2703 71.6569 80.7577 76.88 75.4339 82.3046C74.943 82.7954 74.6032 83.6638 74.5906 84.3561C74.5151 88.9751 74.5528 93.5941 74.5528 98.2132C74.5528 100.919 73.5711 101.913 70.8274 101.85C53.9496 101.473 39.2997 95.5324 27.0536 83.9281C21.5409 78.7176 16.0409 73.4566 11.7742 67.0882C5.3554 57.4851 1.5922 46.9507 0.748941 35.4094C0.648253 33.9872 0.560173 32.5776 0.535002 31.1553C0.497244 29.0032 1.59219 27.883 3.80731 27.8578C8.1998 27.8201 12.6049 27.7697 16.9974 27.883C18.6336 27.9208 19.7789 27.4677 20.9368 26.272C25.732 21.3383 30.6027 16.4676 35.5113 11.6472C48.5629 -1.14014 67.2907 -3.4056 83.0483 5.83247C83.1993 5.92057 83.3629 6.00867 83.8034 6.2478H83.816Z" fill="#3CECC8"/>
<path d="M21.6794 86.6719C30.2127 95.2051 40.1681 101.196 51.6591 104.619C47.8707 110.031 38.2299 113.379 29.8981 108.949C20.9243 104.179 18.5581 93.7703 21.6794 86.6593V86.6719Z" fill="#3CECC8"/>
</svg>
