<svg width="27" height="49" viewBox="0 0 27 49" fill="none" xmlns="http://www.w3.org/2000/svg">
<path d="M0.729944 25.59C0.999945 25.85 1.26994 26.11 1.55994 26.37C1.82994 26.62 2.09994 26.88 2.36994 27.14L11.0699 35.72C11.4699 36.11 11.8699 36.5 12.2699 36.89L19.5699 44.05L22.5999 47.03C22.7499 47.18 22.8999 47.33 23.0499 47.48C23.6399 48.06 24.2099 48.16 24.5799 48.16C25.0599 48.15 25.4899 47.95 25.8399 47.58C26.5799 46.8 26.5199 45.71 25.6899 44.86L23.8499 43.05C22.7199 41.94 21.5599 40.8 20.4199 39.67C19.3699 38.62 18.3199 37.57 17.2699 36.52C15.8899 35.14 14.4699 33.71 13.0499 32.32C12.3599 31.64 11.6499 30.97 10.8899 30.26C10.2699 29.67 9.62994 29.07 9.00994 28.46C7.84994 27.32 6.68994 26.15 5.55994 25.01L4.62994 24.08L5.60994 23.13C6.90994 21.87 8.18994 20.62 9.46994 19.36C10.6699 18.19 11.8699 17.01 13.0699 15.83L16.8799 12.09C18.0899 10.9 19.3399 9.68004 20.5699 8.47004C22.1099 6.95004 23.6599 5.39003 25.1599 3.89003L25.8099 3.24004C26.5299 2.52003 26.5899 1.41003 25.9499 0.670033C25.5799 0.240032 25.0899 3.44462e-05 24.5799 3.44908e-05C24.2099 3.45231e-05 23.8399 0.120033 23.4899 0.350033C23.2699 0.490032 23.0699 0.650036 22.8999 0.820034L9.54994 13.93C8.17994 15.28 6.80994 16.63 5.43994 17.98C5.29994 18.11 5.18994 18.25 5.06994 18.39C4.98994 18.49 4.90994 18.58 4.82994 18.66L3.28994 20.14C2.41994 20.97 1.52994 21.83 0.65994 22.69C0.21994 23.12 -5.93676e-05 23.6 -5.93239e-05 24.1C-5.92775e-05 24.63 0.239942 25.13 0.719942 25.6L0.729944 25.59Z" fill="#3CECC8"/>
</svg>
