<svg width="52" height="42" viewBox="0 0 52 42" fill="none" xmlns="http://www.w3.org/2000/svg">
<path d="M0.020061 20.78C0.340061 20.32 0.610061 19.8 1.00006 19.39C4.77006 15.37 8.56006 11.38 12.3301 7.36998C12.8701 6.79998 13.4701 6.42999 14.2901 6.56999C15.6701 6.79999 16.3601 8.36998 15.5901 9.53998C15.4501 9.74998 15.2701 9.92998 15.1001 10.12C11.7201 13.71 8.33006 17.3 4.94006 20.88C4.85006 20.98 4.77006 21.08 4.66006 21.19C4.77006 21.32 4.87006 21.43 4.97006 21.54C8.37006 25.14 11.7601 28.74 15.1601 32.34C15.6701 32.88 16.0101 33.47 15.8601 34.25C15.5701 35.75 13.8301 36.36 12.6801 35.36C12.5501 35.25 12.4401 35.13 12.3201 35C8.54006 31 4.75006 27 0.980061 22.98C0.600061 22.57 0.330061 22.06 6.10352e-05 21.59C6.10352e-05 21.32 6.10352e-05 21.05 6.10352e-05 20.78H0.020061Z" fill="#00C497"/>
<path d="M30.7501 2.79999C30.5501 4.12999 30.3201 5.65999 30.0801 7.18999C29.4201 11.51 28.7601 15.83 28.1001 20.15C27.4101 24.67 26.7201 29.19 26.0301 33.71C25.7101 35.83 25.3901 37.95 25.0601 40.07C24.9001 41.08 24.1901 41.74 23.2301 41.79C22.3401 41.84 21.5101 41.29 21.2801 40.42C21.1901 40.07 21.1801 39.68 21.2401 39.32C22.0901 33.7 22.9601 28.08 23.8201 22.46C24.6801 16.82 25.5401 11.18 26.4001 5.53998C26.5701 4.45998 26.7301 3.36998 26.9001 2.28998C27.0801 1.16998 27.9501 0.479991 29.0301 0.579991C30.0601 0.669991 30.7901 1.51999 30.7501 2.79999Z" fill="#00C497"/>
<path d="M47.2901 21.18C45.5601 19.35 43.8701 17.56 42.1801 15.76C40.3601 13.83 38.5401 11.9 36.7201 9.97998C36.2001 9.42998 35.9101 8.81998 36.0801 8.04998C36.3901 6.65998 38.0301 6.05998 39.1501 6.93998C39.4301 7.15998 39.6601 7.42998 39.9101 7.68998C43.6701 11.67 47.4201 15.65 51.1901 19.63C51.7801 20.25 52.1201 20.93 51.8101 21.78C51.6901 22.1 51.4801 22.41 51.2501 22.67C47.3401 26.83 43.4201 30.98 39.5001 35.13C38.6501 36.02 37.4701 36.09 36.6601 35.32C35.8201 34.53 35.8301 33.36 36.7001 32.43C40.0901 28.83 43.4901 25.23 46.8901 21.63C47.0201 21.5 47.1401 21.36 47.3101 21.18H47.2901Z" fill="#00C497"/>
</svg>
