<svg width="48" height="45" viewBox="0 0 48 45" fill="none" xmlns="http://www.w3.org/2000/svg">
<path d="M9.85008 32.04V28.91C9.28008 28.91 8.72008 28.89 8.16008 28.93C8.03008 28.94 7.88008 29.15 7.79008 29.31C6.96008 30.71 5.34008 31.48 3.80008 31.21C2.12008 30.91 0.870081 29.72 0.560081 28.1C0.200081 26.22 1.22008 24.38 3.00008 23.71C4.79008 23.03 6.78008 23.71 7.74008 25.37C7.93008 25.7 8.13008 25.83 8.50008 25.8C8.94008 25.77 9.37008 25.8 9.84008 25.8V22.69C9.57008 22.68 9.31008 22.69 9.06008 22.65C7.90008 22.5 7.01008 21.94 6.42008 20.93C5.92008 20.07 5.44008 19.2 4.97008 18.33C4.83008 18.06 4.66008 17.98 4.36008 17.98C2.14008 17.96 0.410081 16.16 0.470081 13.95C0.530081 11.79 2.39008 10.09 4.58008 10.19C7.51008 10.31 9.25008 13.57 7.72008 16.1C7.54008 16.4 7.55008 16.6 7.72008 16.88C8.15008 17.61 8.55008 18.35 8.96008 19.09C9.14008 19.41 9.44008 19.56 9.86008 19.54C9.86008 19.14 9.86008 18.74 9.86008 18.34C9.88008 16.37 11.3701 14.89 13.3401 14.87C14.2501 14.87 15.1601 14.87 16.1201 14.87C16.1201 14.65 16.1201 14.48 16.1201 14.31C16.1201 12.44 16.1201 10.57 16.1201 8.69001C16.1301 4.55001 19.1201 1.25999 23.2601 0.829995C27.1701 0.419995 30.8201 3.16002 31.6301 7.14002C31.7401 7.66002 31.7701 8.21 31.7801 8.74C31.8001 10.6 31.7801 12.45 31.7801 14.31C31.7801 14.48 31.7801 14.66 31.7801 14.88C32.6701 14.88 33.5201 14.88 34.3601 14.88C36.6001 14.88 38.0401 16.32 38.0501 18.54C38.0501 18.86 38.0501 19.19 38.0501 19.52C38.4701 19.65 38.7401 19.54 38.9401 19.15C39.3501 18.36 39.7901 17.58 40.2401 16.8C40.3801 16.55 40.3601 16.39 40.2201 16.15C39.3201 14.69 39.4501 12.89 40.5301 11.6C41.6001 10.31 43.3901 9.85 44.9601 10.46C46.5301 11.07 47.5201 12.6 47.4501 14.29C47.3601 16.31 45.6701 17.97 43.6201 17.99C43.2601 17.99 43.0701 18.11 42.9101 18.42C42.5301 19.16 42.0901 19.86 41.7101 20.6C40.9901 21.99 39.8701 22.71 38.2901 22.69C38.2301 22.69 38.1701 22.7 38.0801 22.71V25.81C38.6501 25.81 39.2301 25.83 39.8101 25.79C39.9301 25.79 40.0501 25.57 40.1401 25.42C40.9401 24.06 42.5201 23.27 44.0301 23.49C45.6601 23.73 46.9601 24.87 47.3401 26.42C47.8101 28.3 46.8201 30.25 45.0401 30.98C43.2401 31.72 41.1801 31.05 40.2001 29.37C39.9901 29.02 39.7701 28.91 39.4001 28.93C38.9801 28.96 38.5601 28.93 38.1001 28.93V32.03C38.3901 32.05 38.6801 32.03 38.9701 32.08C40.0801 32.25 40.9501 32.8 41.5201 33.79C42.0101 34.65 42.5001 35.52 42.9701 36.39C43.1101 36.65 43.2601 36.75 43.5701 36.75C45.8001 36.77 47.5301 38.56 47.4701 40.77C47.4201 42.91 45.5901 44.61 43.4201 44.55C41.2601 44.49 39.5201 42.64 39.6701 40.44C39.7201 39.79 40.0701 39.16 40.2701 38.51C40.3201 38.35 40.3501 38.13 40.2801 38C39.8601 37.19 39.3901 36.41 38.9701 35.6C38.7801 35.24 38.5401 35.09 38.0801 35.21C38.0801 35.55 38.0801 35.91 38.0801 36.28C38.0701 38.38 36.6001 39.85 34.5101 39.85C27.5001 39.85 20.4801 39.85 13.4701 39.85C11.3701 39.85 9.91008 38.37 9.89008 36.28C9.89008 35.92 9.89008 35.57 9.89008 35.21C9.45008 35.07 9.20008 35.21 9.00008 35.59C8.60008 36.37 8.17008 37.14 7.72008 37.89C7.57008 38.15 7.57008 38.33 7.73008 38.58C8.64008 40.06 8.49008 41.86 7.38008 43.17C6.29008 44.44 4.52008 44.87 2.93008 44.24C1.41008 43.64 0.420081 42.09 0.500081 40.42C0.590081 38.4 2.29008 36.75 4.34008 36.74C4.68008 36.74 4.86008 36.64 5.02008 36.34C5.37008 35.66 5.79008 35.02 6.12008 34.33C6.88008 32.79 8.05008 31.96 9.87008 32.04H9.85008ZM23.9701 17.97C20.5501 17.97 17.1201 17.97 13.7001 17.97C13.0301 17.97 13.0101 17.99 13.0101 18.66C13.0101 24.45 13.0101 30.25 13.0101 36.04C13.0101 36.7 13.0301 36.72 13.7001 36.72C20.5501 36.72 27.4001 36.72 34.2501 36.72C34.9101 36.72 34.9401 36.7 34.9401 36.03C34.9401 30.24 34.9401 24.44 34.9401 18.65C34.9401 17.99 34.9201 17.97 34.2501 17.97C30.8301 17.97 27.4001 17.97 23.9801 17.97H23.9701ZM28.6601 14.82C28.6601 12.6 28.6601 10.44 28.6601 8.28001C28.6601 8.01001 28.6001 7.73 28.5301 7.46C27.9601 5.2 25.8101 3.67001 23.5201 3.91001C21.1201 4.16001 19.3001 6.13002 19.2801 8.54002C19.2601 10.52 19.2801 12.51 19.2801 14.49C19.2801 14.6 19.3101 14.7 19.3201 14.81H28.6701L28.6601 14.82ZM4.37008 13.28C3.94008 13.29 3.60008 13.66 3.61008 14.08C3.62008 14.5 3.99008 14.85 4.41008 14.83C4.83008 14.82 5.18008 14.45 5.17008 14.03C5.16008 13.61 4.79008 13.26 4.37008 13.28ZM44.3301 14.06C44.3301 13.64 43.9801 13.28 43.5501 13.28C43.1201 13.28 42.7701 13.63 42.7701 14.06C42.7701 14.48 43.1201 14.84 43.5501 14.84C43.9701 14.84 44.3301 14.49 44.3301 14.06ZM5.17008 27.34C5.17008 26.92 4.81008 26.56 4.39008 26.57C3.96008 26.57 3.61008 26.93 3.62008 27.35C3.62008 27.77 3.98008 28.13 4.40008 28.12C4.82008 28.12 5.18008 27.76 5.17008 27.34ZM44.3301 27.36C44.3401 26.94 44.0001 26.57 43.5701 26.56C43.1501 26.55 42.7801 26.89 42.7701 27.32C42.7601 27.74 43.1001 28.11 43.5301 28.12C43.9501 28.13 44.3201 27.79 44.3301 27.36ZM5.17008 40.64C5.17008 40.22 4.83008 39.86 4.40008 39.85C3.98008 39.85 3.62008 40.19 3.61008 40.61C3.61008 41.03 3.95008 41.39 4.37008 41.4C4.79008 41.4 5.16008 41.06 5.16008 40.64H5.17008ZM44.3301 40.64C44.3401 40.22 44.0001 39.85 43.5701 39.84C43.1501 39.83 42.7801 40.17 42.7701 40.6C42.7601 41.02 43.1001 41.39 43.5301 41.4C43.9501 41.41 44.3201 41.07 44.3301 40.64Z" fill="#00C497"/>
<path d="M22.4001 31.15C22.5901 30.54 22.2701 30.16 21.5901 29.8C19.6801 28.77 18.8401 26.52 19.4701 24.43C20.0701 22.4 22.0201 21.03 24.1801 21.11C26.2701 21.18 28.1301 22.75 28.5601 24.79C29.0101 26.92 27.9801 29.06 26.0301 29.99C25.6501 30.17 25.4801 30.36 25.5301 30.78C25.5701 31.17 25.5401 31.56 25.5301 31.95C25.5201 32.9 24.8601 33.6 23.9801 33.61C23.0901 33.61 22.4201 32.92 22.4001 31.97C22.4001 31.74 22.4001 31.51 22.4001 31.15ZM23.9901 27.35C24.8401 27.34 25.5401 26.63 25.5301 25.78C25.5301 24.93 24.8201 24.23 23.9701 24.23C23.0901 24.23 22.3901 24.95 22.4001 25.82C22.4201 26.67 23.1401 27.36 23.9901 27.35Z" fill="#00C497"/>
</svg>
