<svg width="44" height="42" viewBox="0 0 44 42" fill="none" xmlns="http://www.w3.org/2000/svg">
<path d="M43.3101 38.53C43.2601 37.83 43.2301 37.09 43.1601 36.35C42.9501 33.99 42.5801 31.67 41.8001 29.42C40.5201 25.69 37.0701 24.3 34.4201 24.3C33.9801 24.3 33.6801 24.17 33.3701 23.88C31.1401 21.75 28.9001 19.61 26.6601 17.48C27.6701 13.96 28.6701 10.44 29.6801 6.91002C29.8701 6.25002 29.8001 5.66002 29.3101 5.17002C28.8201 4.68002 28.2201 4.60002 27.5701 4.80002C27.0901 4.95002 26.6101 5.08002 26.1301 5.22002C22.9701 6.13002 19.7901 7.00003 16.6301 7.92003C14.6101 6.00003 12.5901 4.07001 10.5701 2.15001C9.34011 0.980014 7.87011 0.510014 6.21011 0.900014C2.60011 1.75001 1.44011 6.03002 4.06011 8.78002C5.07011 9.84002 6.08011 10.9 7.09011 11.96C5.90011 13.12 5.01011 14.6 4.49011 16.41C4.24011 17.28 3.88011 18.74 4.31011 21.17C4.34011 21.32 4.27011 21.52 4.17011 21.62C3.48011 22.33 2.77011 23.02 2.08011 23.73C0.140107 25.7 0.130107 28.64 2.06011 30.62C2.66011 31.24 3.28011 31.85 3.90011 32.46C5.87011 34.39 8.82011 34.37 10.7901 32.43C11.4901 31.73 12.1901 31.02 12.9001 30.34C13.0001 30.24 13.2101 30.17 13.3501 30.2C16.6601 30.86 19.8601 29.93 22.1601 27.76C23.3601 29.02 24.5701 30.29 25.7701 31.55C26.0501 31.85 26.1801 32.13 26.1701 32.55C26.1401 35.19 27.5701 38.62 31.1001 39.88C34.5201 41.1 38.0701 41.44 41.6701 41.44C42.5701 41.44 43.2601 40.69 43.3201 39.78C43.3401 39.38 43.3201 38.98 43.3201 38.54L43.3101 38.53ZM6.81011 6.36002C6.68011 6.22002 6.54011 6.09001 6.44011 5.93001C6.18011 5.50001 6.22011 5.08002 6.57011 4.73002C6.92011 4.38002 7.34011 4.33002 7.77011 4.59002C7.92011 4.68002 8.04011 4.80002 8.17011 4.92002C9.64011 6.32002 11.1201 7.73002 12.5901 9.13002C12.2101 9.24002 11.8301 9.36003 11.4501 9.48003C11.0201 9.61003 10.6001 9.76002 10.2001 9.94002C9.07011 8.75002 7.94011 7.57002 6.81011 6.38002V6.36002ZM13.1501 26.81C12.4801 26.58 11.8901 26.76 11.4001 27.26C10.4901 28.18 9.57011 29.09 8.66011 30C7.75011 30.91 6.89011 30.91 5.99011 30.02C5.47011 29.5 4.94011 28.97 4.42011 28.45C3.63011 27.65 3.62011 26.74 4.42011 25.94C5.30011 25.05 6.17011 24.14 7.09011 23.29C7.76011 22.66 7.92011 21.98 7.63011 21.12C7.22011 19.88 7.21011 18.6 7.57011 17.34C7.92011 16.1 8.52011 15.1 9.33011 14.31C10.1401 13.52 11.1601 12.94 12.3601 12.56C12.4501 12.53 12.5401 12.5 12.6301 12.48C13.5101 12.2 14.3901 11.94 15.2701 11.69C16.6301 11.3 17.9901 10.92 19.3601 10.53C19.6301 10.45 19.8901 10.38 20.1501 10.3C20.9501 10.07 21.7501 9.85002 22.6501 9.59002C22.4801 9.77002 22.3901 9.87002 22.2901 9.97002C21.7201 10.54 21.1401 11.12 20.5701 11.69C19.7101 12.55 18.8501 13.41 17.9901 14.28C17.5101 14.76 17.0301 15.24 16.5501 15.73C16.3701 15.91 16.2101 16 16.0001 16.02C15.9201 16.02 15.8401 16.02 15.7401 16.02C14.3601 15.83 13.1201 16.57 12.5201 17.68C12.1701 18.34 12.0301 19.12 12.2301 19.92C12.6401 21.61 14.2501 22.66 15.9701 22.35C16.2401 22.3 16.4901 22.21 16.7301 22.1C17.9601 21.52 18.7201 20.18 18.5201 18.74C18.5201 18.72 18.5201 18.69 18.5201 18.67C18.5001 18.41 18.5801 18.24 18.7701 18.06C19.2901 17.54 19.8101 17.03 20.3301 16.51C21.1901 15.65 22.0601 14.79 22.9201 13.93C23.4701 13.38 24.0301 12.82 24.5801 12.27C24.6801 12.17 24.7801 12.08 24.8801 11.99C24.9001 12 24.9301 12.02 24.9501 12.03C24.6601 13.03 24.3801 14.04 24.0901 15.04C23.7201 16.36 23.3501 17.69 22.9601 19.01C22.6401 20.1 22.3101 21.19 21.9501 22.27C21.9401 22.31 21.9201 22.36 21.9101 22.4C21.4901 23.67 20.8101 24.7 19.9701 25.48C18.1601 27.16 15.5901 27.67 13.1801 26.85L13.1501 26.81ZM27.2001 27.76C27.2001 27.76 26.2701 26.79 25.6801 26.17C25.2301 25.7 24.7801 25.23 24.3301 24.76C24.3601 24.69 24.4001 24.62 24.4301 24.55C24.8901 23.56 25.2101 22.5 25.5201 21.44C26.8901 22.74 29.6301 25.35 29.6301 25.35L27.1901 27.76H27.2001ZM34.8401 37.13C34.1301 37.01 33.4301 36.8 32.7401 36.6C30.0601 35.86 29.3401 32.83 30.1101 30.88C31.2501 28.01 34.8001 27.02 37.2101 28.95C37.5701 29.24 37.9101 29.63 38.1001 30.04C39.1701 32.46 39.3501 35.06 39.6001 37.8C37.9501 37.57 36.3901 37.37 34.8401 37.12V37.13Z" fill="#00C497"/>
</svg>
