<svg width="147" height="140" viewBox="0 0 147 140" fill="none" xmlns="http://www.w3.org/2000/svg">
<path d="M54.998 0.586989C54.1123 0.519719 53.2042 0.486084 52.3072 0.486084C34.7272 0.486084 19.8829 14.2317 18.5039 31.778C17.9881 38.3481 19.3896 44.8509 22.5513 50.6473C28.1572 49.1001 33.5612 48.3265 38.6177 48.3265C51.186 48.3265 61.1308 53.2709 67.3982 62.6326C68.0709 63.6305 68.71 64.6283 69.2818 65.5365C83.8794 56.242 89.261 37.7763 82.6686 19.176C77.2645 8.46883 66.9273 1.52877 54.998 0.586989ZM38.4944 26.0264C36.8575 25.3649 36.9135 23.5822 37.6087 22.7413C38.315 21.9005 43.4275 15.9583 44.7281 14.3774C45.9165 12.9423 46.6341 14.2317 46.6341 14.2317L47.6656 18.0885C64.5616 16.4404 66.7479 27.3494 66.7479 27.3494C59.7854 20.4093 49.6725 24.8716 49.6725 24.8716C49.6725 24.8716 49.8182 25.7573 50.4236 28.0109C51.0291 30.2644 48.7419 29.6702 48.7419 29.6702C48.7419 29.6702 40.5685 26.856 38.4944 26.0152V26.0264ZM67.7906 34.5585C67.0843 35.3994 61.9717 41.3416 60.6712 42.9224C59.4827 44.3575 58.7652 43.0682 58.7652 43.0682L57.7337 39.2114C40.8376 40.8707 38.6513 29.9505 38.6513 29.9505C45.6138 36.8905 55.7268 32.4171 55.7268 32.4171C55.7268 32.4171 55.581 31.5313 54.9756 29.2778C54.3702 27.0242 56.6686 27.6184 56.6686 27.6184C56.6686 27.6184 64.8419 30.4326 66.9161 31.2735C68.553 31.9237 68.4969 33.7176 67.8018 34.5585H67.7906Z" fill="#00C497"/>
<path d="M144.838 80.4032C144.714 80.4032 144.591 80.4256 144.468 80.4481L124.343 86.1773C123.916 86.3006 123.558 86.6369 123.345 87.119C123.098 87.6796 123.064 88.3523 123.255 89.0138C123.614 90.2695 124.724 91.1328 125.677 90.8638L145.802 85.1346C146.744 84.8655 147.248 83.5649 146.878 82.2868C146.564 81.188 145.701 80.3808 144.826 80.3808L144.838 80.4032Z" fill="#00C497"/>
<path d="M126.775 92.893C132.74 118.344 112.111 132.953 112.111 132.953C139.445 123.378 144.669 97.4674 145.667 87.5114L126.775 92.893Z" fill="#00C497"/>
<path d="M96.8851 67.6778C96.7505 67.9918 96.7842 68.373 96.986 68.799C97.4681 69.8417 99.0377 71.3441 101.908 72.185C102.603 72.3868 103.276 72.5774 103.904 72.7568C107.716 73.8219 110.462 74.5955 112.862 77.2078C113.075 77.4433 113.288 77.6787 113.512 77.9254C115.653 80.291 118.277 83.1949 121.349 84.1815C121.932 83.5985 122.638 83.1724 123.434 82.9482L143.559 77.219C143.896 77.1181 144.255 77.0621 144.602 77.0396C144.995 74.6179 144.725 71.9831 144.243 70.3014C143.997 69.4157 143.761 68.3393 143.492 67.1173C142.259 61.4105 140.398 52.7999 133.693 52.755C132.841 52.8223 122.784 53.5735 118.221 53.5735C116.562 53.5735 116.046 53.4838 115.698 53.3268C113.052 52.1048 110.967 45.2096 110.575 43.8417L110.474 43.4717C109.498 40.0185 108.568 36.7559 106.594 36.7559C106.359 36.7559 106.09 36.8008 105.81 36.8793C103.948 37.4062 104.072 38.9871 105.428 43.7745C105.585 44.335 106.011 45.7029 106.55 47.4295C108.175 52.6654 110.911 61.4217 111.864 65.7158C112.088 66.7361 111.774 67.3976 111.472 67.7788C111.034 68.3169 110.328 68.6308 109.521 68.6308C109.263 68.6308 109.005 68.5972 108.769 68.5411C107.76 68.2721 106.707 68.0478 105.686 67.8236C104.744 67.6106 103.769 67.4088 102.816 67.1621L102.648 67.106C101.583 66.6464 100.495 66.3997 99.5198 66.3997C98.7462 66.3997 97.3784 66.5679 96.8738 67.6778H96.8851Z" fill="#00C497"/>
<path d="M107.839 18.9854C101.392 18.4808 94.9006 19.8487 89.205 22.8983C94.1382 38.8301 92.6022 59.213 78.0382 69.5951C76.5806 70.6378 75.0671 71.6132 73.688 72.4765C78.3633 79.4726 83.0274 84.2151 90.9989 86.2108C94.3624 87.0517 97.8493 87.4778 101.381 87.4778C106.37 87.4778 111.27 86.6369 115.979 84.9888C114.005 83.4752 112.324 81.614 111.012 80.1677C110.765 79.8986 110.563 79.6744 110.373 79.4614C109.375 78.3626 108.276 77.7123 106.852 77.163C106.841 77.163 106.83 77.1518 106.819 77.1518C106.807 77.1518 106.796 77.1518 106.785 77.1406C105.742 76.7481 101.269 75.3243 100.574 75.0552C100.103 75.1224 99.6095 75.1897 99.0489 75.2121C95.2033 75.3243 91.9968 72.2971 91.8734 68.4515C91.8286 67.0164 92.0416 65.514 92.9498 64.5274C94.5867 62.7447 95.9993 62.1056 99.475 62.6886C102.951 63.2717 110.429 67.0836 108.769 62.1953C107.11 57.307 100.372 48.9991 99.2956 39.458C98.8583 35.6348 102.211 32.3946 106.067 32.2825C109.913 32.1703 113.12 35.1975 113.243 39.0431C113.265 39.7383 113.187 40.3998 113.008 41.0276C113.221 41.5097 115.093 46.5326 115.676 47.934C115.676 47.934 115.676 47.934 115.676 47.9452C116.248 49.1225 116.741 49.8737 117.021 50.1764C117.234 50.1876 117.604 50.21 118.221 50.21C122.762 50.21 133.379 49.4028 133.491 49.4028H133.615C135.655 49.4028 137.483 49.9185 139.086 50.9276C138.167 34.1324 124.87 20.3196 107.85 18.9854H107.839Z" fill="#00C497"/>
<path d="M99.2395 92.0522C89.3956 92.0522 80.8747 89.4847 74.5962 84.6301C71.3672 82.1411 68.9903 79.0466 67.2301 76.4455C61.2878 80.2463 55.4802 84.7982 53.3612 93.1173C51.6009 100.035 52.0158 107.592 54.6281 116.225C58.9222 129.241 70.5263 138.357 84.2046 139.433C85.1015 139.5 85.9985 139.534 86.8954 139.534C104.475 139.534 119.32 125.788 120.699 108.242C121.214 101.705 119.835 95.2475 116.707 89.4847C111.001 91.1665 104.98 92.0522 99.2283 92.0522H99.2395ZM106.224 116.965C105.989 118.983 104.206 122.1 99.7665 119.285C95.3266 116.471 95.2369 115.417 92.064 116.27C88.9023 117.122 84.4176 118.321 81.9174 118.994C78.7333 119.846 79.1817 120.799 76.7152 125.463C74.2486 130.127 71.1317 128.322 69.9209 126.696C68.6988 125.071 65.5147 116.449 67.7346 108.343C69.9545 100.226 77.6009 101.795 79.3724 102.199C80.7178 102.502 82.9937 102.199 83.801 101.851C84.6867 101.459 85.1688 100.966 86.1106 100.259C87.3551 99.3286 88.3193 98.342 90.0011 97.7702C91.6716 97.1984 95.6854 96.7275 98.9592 99.9789C104.913 105.91 106.471 114.958 106.224 116.976V116.965Z" fill="#00C497"/>
<path d="M52.9239 57.8004C48.1253 54.4145 42.8558 52.7664 36.8126 52.7664C32.1262 52.7664 27.0136 53.7642 21.1723 55.8384C9.20939 60.6818 1.12575 71.7254 0.10548 84.6301C-0.600858 93.6667 2.25813 102.445 8.14428 109.329C14.0416 116.225 22.2598 120.407 31.2965 121.113C37.6087 121.618 43.9881 120.306 49.594 117.391C46.2529 107.637 45.412 98.342 47.1386 90.4714C49.1231 81.4571 54.3366 74.3377 62.622 69.2812C59.8079 64.7068 57.0386 60.7043 52.9127 57.7892L52.9239 57.8004ZM36.4987 98.6783C33.5164 99.4744 30.4444 97.7029 29.6484 94.7206C29.5362 94.2946 29.4802 93.8685 29.4578 93.4425L18.6385 91.671C18.0667 93.1173 16.8558 94.2834 15.2413 94.7094C12.5393 95.4382 9.75877 93.8349 9.03001 91.1216C8.30125 88.4196 9.91573 85.6391 12.6178 84.9104C14.2322 84.4731 15.8692 84.8767 17.08 85.8409L26.3297 78.273C26.2064 78.0151 26.0942 77.7349 26.0158 77.4433C25.3543 74.9656 26.823 72.4317 29.2896 71.759C31.7674 71.0975 34.3012 72.5662 34.9627 75.0328C35.6242 77.5106 34.1555 80.0445 31.6889 80.706C30.2426 81.0872 28.7851 80.7508 27.6751 79.9099L18.4254 87.4778C18.5824 87.7918 18.7169 88.1169 18.8066 88.4757C18.8963 88.8232 18.9524 89.182 18.9748 89.5296L29.7941 91.301C30.3995 89.6641 31.7674 88.3299 33.5949 87.8366C36.5772 87.0406 39.6492 88.812 40.4452 91.7944C41.2413 94.7767 39.4698 97.8487 36.4875 98.6559L36.4987 98.6783Z" fill="#00C497"/>
<path d="M77.0291 110.507L76.2667 107.659L73.374 108.444L74.1364 111.291L71.2887 112.054L72.0623 114.946L74.91 114.184L75.6724 117.032L78.5763 116.258L77.8139 113.41L80.6617 112.648L79.8768 109.744L77.0291 110.507Z" fill="#00C497"/>
<path d="M91.4362 109.004C90.3486 109.296 89.6984 110.417 89.9899 111.505C90.2814 112.592 91.4025 113.242 92.4901 112.951C93.5776 112.659 94.2279 111.538 93.9364 110.451C93.6449 109.363 92.5237 108.713 91.4362 109.004Z" fill="#00C497"/>
<path d="M90.9877 107.345C92.0752 107.053 92.7255 105.932 92.434 104.845C92.1425 103.757 91.0213 103.107 89.9338 103.398C88.8462 103.69 88.1959 104.811 88.4875 105.899C88.779 106.986 89.9001 107.636 90.9877 107.345Z" fill="#00C497"/>
<path d="M95.7975 104.834C94.71 105.125 94.0597 106.246 94.3512 107.334C94.6427 108.421 95.7639 109.072 96.8514 108.78C97.9389 108.489 98.5892 107.367 98.2977 106.28C98.0062 105.192 96.885 104.542 95.7975 104.834Z" fill="#00C497"/>
</svg>
