<svg width="27" height="49" viewBox="0 0 27 49" fill="none" xmlns="http://www.w3.org/2000/svg">
<path d="M25.6628 22.57C25.3928 22.31 25.1228 22.05 24.8328 21.79C24.5628 21.54 24.2928 21.28 24.0228 21.02L15.3228 12.44C14.9228 12.05 14.5228 11.66 14.1228 11.27L6.82282 4.11L3.79282 1.13C3.64282 0.98 3.49282 0.83 3.34282 0.68C2.75282 0.1 2.18282 0 1.81282 0C1.33282 0.01 0.902817 0.21 0.552817 0.58C-0.187183 1.36 -0.127183 2.45 0.702816 3.3L2.54282 5.11C3.67282 6.22 4.83282 7.36 5.97282 8.49C7.02282 9.54 8.07281 10.59 9.12282 11.64C10.5028 13.02 11.9228 14.45 13.3428 15.84C14.0328 16.52 14.7428 17.19 15.5028 17.9C16.1228 18.49 16.7628 19.09 17.3828 19.7C18.5428 20.84 19.7028 22.01 20.8328 23.15L21.7628 24.08L20.7828 25.03C19.4828 26.29 18.2028 27.54 16.9228 28.8C15.7228 29.97 14.5228 31.15 13.3228 32.33L9.51282 36.07C8.30282 37.26 7.05282 38.48 5.82282 39.69C4.28282 41.21 2.73282 42.77 1.23282 44.27L0.582817 44.92C-0.137183 45.64 -0.197184 46.75 0.442816 47.49C0.812816 47.92 1.30282 48.16 1.81282 48.16C2.18282 48.16 2.55282 48.04 2.90282 47.81C3.12282 47.67 3.32282 47.51 3.49282 47.34L16.8428 34.23C18.2128 32.88 19.5828 31.53 20.9528 30.18C21.0928 30.05 21.2028 29.91 21.3228 29.77C21.4028 29.67 21.4828 29.58 21.5628 29.5L23.1028 28.02C23.9728 27.19 24.8628 26.33 25.7328 25.47C26.1728 25.04 26.3928 24.56 26.3928 24.06C26.3928 23.53 26.1528 23.03 25.6728 22.56L25.6628 22.57Z" fill="#3CECC8"/>
</svg>
